<?xml version="1.0" encoding="UTF-8" standalone="no"?>
<!-- Created with Inkscape (http://www.inkscape.org/) -->

<svg
   width="272.47565mm"
   height="80.365585mm"
   viewBox="0 0 272.47565 80.365585"
   version="1.1"
   id="svg1274"
   inkscape:version="1.1.2 (0a00cf5339, 2022-02-04)"
   sodipodi:docname="logo.svg"
   xmlns:inkscape="http://www.inkscape.org/namespaces/inkscape"
   xmlns:sodipodi="http://sodipodi.sourceforge.net/DTD/sodipodi-0.dtd"
   xmlns="http://www.w3.org/2000/svg"
   xmlns:svg="http://www.w3.org/2000/svg">
  <sodipodi:namedview
     id="namedview1276"
     pagecolor="#505050"
     bordercolor="#eeeeee"
     borderopacity="1"
     inkscape:pageshadow="0"
     inkscape:pageopacity="0"
     inkscape:pagecheckerboard="0"
     inkscape:document-units="mm"
     showgrid="false"
     fit-margin-top="0"
     fit-margin-left="0"
     fit-margin-right="0"
     fit-margin-bottom="0"
     inkscape:zoom="0.77771465"
     inkscape:cx="769.56246"
     inkscape:cy="367.74413"
     inkscape:window-width="5120"
     inkscape:window-height="1371"
     inkscape:window-x="0"
     inkscape:window-y="0"
     inkscape:window-maximized="1"
     inkscape:current-layer="layer1" />
  <defs
     id="defs1271">
    <clipPath
       clipPathUnits="userSpaceOnUse"
       id="clipPath395">
      <path
         d="M 0,1500 H 1500 V 0 H 0 Z"
         id="path393" />
    </clipPath>
  </defs>
  <g
     inkscape:label="Layer 1"
     inkscape:groupmode="layer"
     id="layer1"
     transform="translate(151.8873,-50.992471)">
    <g
       id="g389"
       transform="matrix(0.25474101,0,0,-0.25081756,-206.70525,279.28842)"
       style="fill:#ffffff">
      <g
         id="g391"
         clip-path="url(#clipPath395)"
         style="fill:#ffffff">
        <g
           id="g397"
           transform="translate(338.2442,689.7727)"
           style="fill:#ffffff">
          <path
             d="m 0,0 1.595,6.382 c 0.798,4.52 -2.127,7.977 -6.381,7.977 h -31.643 l 1.595,7.445 c 1.596,7.712 8.244,13.562 16.221,13.562 H 7.711 c 4.254,0 8.775,3.988 9.572,8.508 l 1.862,7.711 c 0.797,4.521 -2.127,7.977 -6.382,7.977 H -61.69 c -12.231,0 -30.313,-6.913 -33.503,-21.272 l -27.654,-130.293 c -1.064,-4.254 2.127,-7.977 6.381,-7.977 h 47.863 c 4.52,0 8.509,3.723 9.572,7.977 l 17.815,84.026 H -9.573 C -5.318,-7.977 -0.798,-4.52 0,0"
             style="fill:#ffffff;fill-opacity:1;fill-rule:nonzero;stroke:none"
             id="path399" />
        </g>
        <g
           id="g401"
           transform="translate(439.8294,658.9279)"
           style="fill:#ffffff">
          <path
             d="m 0,0 -0.797,-3.456 c -1.596,-8.509 -9.041,-15.157 -16.486,-15.157 -7.446,0 -11.7,6.648 -10.105,15.157 l 4.787,22.069 h 26.59 z m 7.445,34.567 h -54.244 c -19.942,0 -38.822,-11.965 -41.746,-26.59 l -5.053,-23.931 c -2.659,-11.7 8.509,-21.272 24.463,-21.272 h 96.257 c 15.954,0 30.845,9.572 33.504,21.272 l 18.081,85.089 c 2.394,11.7 -8.509,21.272 -24.463,21.272 h -93.066 c -15.954,0 -30.845,-9.572 -33.237,-21.272 L -74.985,55.84 c -1.063,-4.52 1.862,-7.977 6.382,-7.977 h 44.406 c 4.52,0 8.509,3.457 9.573,7.977 l 0.265,0.798 c 1.596,8.509 9.041,15.156 16.486,15.156 7.446,0 11.7,-6.647 10.104,-15.156 z"
             style="fill:#ffffff;fill-opacity:1;fill-rule:nonzero;stroke:none"
             id="path403" />
        </g>
        <g
           id="g405"
           transform="translate(619.9483,712.1086)"
           style="fill:#ffffff">
          <path
             d="m 0,0 c -1.063,-4.52 1.595,-7.977 6.116,-7.977 h 46.533 c 4.521,0 8.775,3.457 9.839,7.977 l 3.456,15.954 c 2.394,11.7 -8.509,21.272 -24.463,21.272 h -93.598 c -15.954,0 -31.11,-9.572 -33.504,-21.272 l -1.861,-8.509 c -5.584,-25.792 10.105,-31.376 27.92,-36.163 14.358,-3.988 43.608,-10.369 46.267,-12.763 2.127,-2.924 2.925,-7.179 1.064,-15.156 -1.596,-8.509 -9.041,-15.157 -16.487,-15.157 -7.445,0 -11.699,6.648 -10.104,15.157 l 0.798,3.456 c 1.064,4.521 -1.595,7.977 -6.116,7.977 h -46.532 c -4.521,0 -8.776,-3.456 -9.839,-7.977 l -3.191,-15.954 c -2.659,-11.7 8.509,-21.272 24.463,-21.272 h 93.598 c 15.954,0 30.845,9.572 33.504,21.272 l 1.595,8.509 c 5.584,25.793 -10.37,30.845 -27.919,36.163 -14.625,4.521 -43.608,10.104 -46.268,12.763 -2.127,2.659 -2.925,7.18 -1.063,15.157 1.595,8.509 9.041,15.156 16.486,15.156 7.445,0 11.7,-6.647 10.104,-15.156 z"
             style="fill:#ffffff;fill-opacity:1;fill-rule:nonzero;stroke:none"
             id="path407" />
        </g>
        <g
           id="g409"
           transform="translate(702.2029,851.9745)"
           style="fill:#ffffff">
          <path
             d="M 0,0 C 1.595,8.509 9.041,15.156 16.486,15.156 23.931,15.156 28.186,8.509 26.59,0 L 22.601,-18.081 H -3.989 Z M -54.776,-93.864 H 6.359 l -27.3,-128.432 c -1.064,-4.52 1.86,-7.977 6.381,-7.977 h 47.863 c 4.52,0 8.509,3.457 9.572,7.977 l 18.347,85.887 c 1.596,8.509 9.041,15.156 16.486,15.156 7.446,0 11.7,-6.647 10.105,-15.156 l -0.266,-0.798 -18.081,-85.089 c -1.064,-4.52 1.86,-7.977 6.381,-7.977 h 47.863 c 4.52,0 8.509,3.457 9.572,7.977 l 21.006,98.384 c 2.394,11.7 -8.508,21.273 -24.463,21.273 h -42.81 c -7.18,0 -14.093,-1.861 -19.943,-5.052 l 7.127,32.564 c 0.322,0.832 0.591,1.677 0.786,2.535 l 2.392,11.966 c 1.064,4.52 -1.861,7.977 -6.381,7.977 H 23.133 c -4.52,0 -8.509,-3.457 -9.572,-7.977 -2.128,-8.243 -9.307,-14.625 -16.486,-14.625 -7.446,0 -11.7,6.648 -10.105,15.157 l 5.585,26.058 h 61.423 c 15.954,0 31.111,9.573 33.504,21.273 l 5.584,25.26 c 2.393,11.7 -8.509,21.272 -24.463,21.272 h -96.257 c -15.954,0 -31.111,-9.572 -33.504,-21.272 l -18.081,-85.089 c -2.659,-11.7 8.509,-21.272 24.463,-21.272"
             style="fill:#ffffff;fill-opacity:1;fill-rule:nonzero;stroke:none"
             id="path411" />
        </g>
        <g
           id="g413"
           transform="translate(878.2125,741.3579)"
           style="fill:#ffffff">
          <path
             d="m 0,0 -23.666,-111.679 c -1.063,-4.52 1.862,-7.977 6.382,-7.977 h 47.862 c 4.521,0 8.509,3.457 9.573,7.977 L 63.817,0 C 64.88,4.521 62.221,7.977 57.7,7.977 H 9.838 C 5.318,7.977 1.063,4.521 0,0"
             style="fill:#ffffff;fill-opacity:1;fill-rule:nonzero;stroke:none"
             id="path415" />
        </g>
        <g
           id="g417"
           transform="translate(1006.003,655.4716)"
           style="fill:#ffffff">
          <path
             d="m 0,0 13.03,60.094 c 1.595,8.509 9.04,15.156 16.486,15.156 7.445,0 11.699,-6.647 10.104,-15.156 L 26.59,0 C 24.995,-8.509 17.55,-15.157 10.104,-15.157 2.659,-15.157 -1.595,-8.509 0,0 m -41.746,-33.77 h 96.257 c 15.954,0 30.844,9.572 33.504,21.272 l 18.081,85.089 c 2.393,11.7 -8.509,21.272 -24.463,21.272 h -96.257 c -15.954,0 -31.111,-9.572 -33.504,-21.272 l -18.081,-85.089 c -2.659,-11.7 8.509,-21.272 24.463,-21.272"
             style="fill:#ffffff;fill-opacity:1;fill-rule:nonzero;stroke:none"
             id="path419" />
        </g>
        <g
           id="g421"
           transform="translate(1260.0171,749.335)"
           style="fill:#ffffff">
          <path
             d="m 0,0 h -42.811 c -7.977,0 -15.688,-2.393 -21.804,-6.115 L -69.401,0 h -47.863 c -4.52,0 -8.774,-3.456 -9.838,-7.977 l -23.666,-111.679 c -1.063,-4.52 1.862,-7.978 6.382,-7.978 h 47.863 c 4.52,0 8.508,3.458 9.572,7.978 l 18.348,85.887 c 1.595,8.509 9.04,15.156 16.486,15.156 7.445,0 11.7,-6.647 10.104,-15.156 l -0.266,-0.798 -18.082,-85.089 c -1.063,-4.52 1.862,-7.978 6.382,-7.978 h 47.863 c 4.52,0 8.509,3.458 9.572,7.978 l 21.007,98.384 C 26.855,-9.573 15.954,0 0,0"
             style="fill:#ffffff;fill-opacity:1;fill-rule:nonzero;stroke:none"
             id="path423" />
        </g>
        <g
           id="g425"
           transform="translate(392.2961,758.1102)"
           style="fill:#ffffff">
          <path
             d="m 0,0 h 45.203 c 4.521,0 8.51,3.457 9.573,7.977 l 18.348,85.887 c 1.595,8.509 9.041,15.156 16.486,15.156 7.445,0 11.7,-6.647 10.104,-15.156 L 99.448,93.066 83.228,16.752 c -1.063,-4.52 1.861,-7.977 6.382,-7.977 h 24.728 c 4.255,0 8.509,3.457 9.573,7.977 l 17.284,80.835 c 2.659,6.647 9.041,11.433 15.156,11.433 7.445,0 11.7,-6.647 10.104,-15.156 L 166.19,93.066 148.109,7.977 C 147.045,3.457 150.236,0 154.49,0 h 45.204 c 4.52,0 8.509,3.457 9.572,7.977 l 21.006,98.384 c 2.394,11.7 -8.242,21.273 -24.197,21.273 h -40.417 c -9.572,0 -19.145,-3.457 -25.527,-9.041 -3.989,5.584 -11.699,9.041 -21.538,9.041 H 98.916 c -7.977,0 -15.688,-2.393 -21.804,-6.116 l -4.786,6.116 H 27.122 c -4.52,0 -8.774,-3.457 -9.838,-7.978 L -6.382,7.977 C -7.445,3.457 -4.52,0 0,0"
             style="fill:#ffffff;fill-opacity:1;fill-rule:nonzero;stroke:none"
             id="path427" />
        </g>
        <g
           id="g429"
           transform="translate(1030.0388,791.8804)"
           style="fill:#ffffff">
          <path
             d="M 0,0 4.786,22.07 H 31.377 L 27.388,3.456 26.59,0 C 24.995,-8.509 17.55,-15.157 10.104,-15.157 2.659,-15.157 -1.595,-8.509 0,0 M -41.746,-33.77 H 54.51 c 15.955,0 30.845,9.572 33.504,21.272 l 18.082,85.089 c 2.393,11.7 -8.509,21.272 -24.463,21.272 h -93.066 c -15.954,0 -30.845,-9.572 -33.239,-21.272 l -2.924,-13.295 c -1.064,-4.52 1.861,-7.977 6.381,-7.977 H 3.191 c 4.521,0 8.509,3.457 9.572,7.977 l 0.267,0.798 c 1.595,8.509 9.04,15.156 16.486,15.156 7.445,0 11.699,-6.647 10.104,-15.156 L 34.834,38.024 H -19.41 c -19.944,0 -38.822,-11.965 -41.748,-26.591 l -5.051,-23.931 c -2.659,-11.7 8.509,-21.272 24.463,-21.272"
             style="fill:#ffffff;fill-opacity:1;fill-rule:nonzero;stroke:none"
             id="path431" />
        </g>
        <g
           id="g433"
           transform="translate(818.8223,758.1102)"
           style="fill:#ffffff">
          <path
             d="m 0,0 h 32.305 2.259 14.545 c 2.803,0 4.132,3.486 2.013,5.32 -2.316,2.003 -4.92,4.72 -7.584,8.386 -2.912,3.858 -4.248,8.92 -3.14,14.131 l 7.012,32.562 9.493,44.633 h 80.626 c 4.255,0 8.775,3.723 9.838,7.977 l 1.33,6.382 c 1.064,4.52 -2.127,7.977 -6.382,7.977 H 61.689 l 3.723,16.752 c 0.797,4.52 -1.862,7.977 -6.381,7.977 H 11.168 c -4.521,0 -8.775,-3.457 -9.573,-7.977 L -24.463,21.272 C -27.122,9.573 -15.954,0 0,0"
             style="fill:#ffffff;fill-opacity:1;fill-rule:nonzero;stroke:none"
             id="path435" />
        </g>
        <g
           id="g437"
           transform="translate(1253.3074,608.5908)"
           style="fill:#ffffff">
          <path
             d="m 0,0 h -914.963 c -8.804,0 -17.036,4.365 -21.975,11.654 l -5.353,7.898 c -1.532,2.262 -5.029,1.577 -5.595,-1.095 l -6.146,-28.987 c -0.903,-4.258 2.345,-8.268 6.699,-8.268 H -3.587 c 3.048,0 5.68,2.133 6.312,5.115 l 1.734,8.179 C 5.061,-2.669 2.898,0 0,0"
             style="fill:#ffffff;fill-opacity:1;fill-rule:nonzero;stroke:none"
             id="path439" />
        </g>
        <g
           id="g441"
           transform="translate(888.5256,791.3117)"
           style="fill:#ffffff">
          <path
             d="m 0,0 -5.366,-25.451 c -0.842,-3.994 2.205,-7.75 6.287,-7.75 h 48.328 c 4.52,0 8.509,3.456 9.573,7.977 l 5.643,26.636 c 0.721,3.401 -1.873,6.602 -5.35,6.602 H 9.88 C 5.106,8.014 0.985,4.671 0,0"
             style="fill:#ffffff;fill-opacity:1;fill-rule:nonzero;stroke:none"
             id="path443" />
        </g>
        <g
           id="g445"
           transform="translate(919.807,811.4377)"
           style="fill:#ffffff">
          <path
             d="m 0,0 c 0.244,-1.521 2.252,-1.91 3.082,-0.613 6.779,10.591 12.159,14.544 24.98,18.179 1.584,0.449 1.666,2.684 0.107,3.213 -10.332,3.508 -13.747,7.422 -15.343,17.355 -0.245,1.521 -2.252,1.91 -3.083,0.613 C 2.965,28.156 -2.415,24.203 -15.236,20.569 -16.82,20.12 -16.902,17.885 -15.343,17.356 -5.011,13.848 -1.596,9.933 0,0"
             style="fill:#ffffff;fill-opacity:1;fill-rule:nonzero;stroke:none"
             id="path447" />
        </g>
      </g>
    </g>
  </g>
</svg>
