<?xml version="1.0" encoding="UTF-8" standalone="no"?>
<!-- Created with Inkscape (http://www.inkscape.org/) -->

<svg
   width="2.9999998mm"
   height="2.6828547mm"
   viewBox="0 0 2.9999998 2.6828546"
   version="1.1"
   id="svg1550"
   inkscape:version="1.1.2 (0a00cf5339, 2022-02-04)"
   sodipodi:docname="star.svg"
   xmlns:inkscape="http://www.inkscape.org/namespaces/inkscape"
   xmlns:sodipodi="http://sodipodi.sourceforge.net/DTD/sodipodi-0.dtd"
   xmlns="http://www.w3.org/2000/svg"
   xmlns:svg="http://www.w3.org/2000/svg">
  <sodipodi:namedview
     id="namedview1552"
     pagecolor="#505050"
     bordercolor="#eeeeee"
     borderopacity="1"
     inkscape:pageshadow="0"
     inkscape:pageopacity="0"
     inkscape:pagecheckerboard="0"
     inkscape:document-units="mm"
     showgrid="false"
     fit-margin-top="0"
     fit-margin-left="0"
     fit-margin-right="0"
     fit-margin-bottom="0"
     inkscape:zoom="12.89139"
     inkscape:cx="-23.154989"
     inkscape:cy="4.5766981"
     inkscape:window-width="5120"
     inkscape:window-height="1371"
     inkscape:window-x="0"
     inkscape:window-y="0"
     inkscape:window-maximized="1"
     inkscape:current-layer="layer1" />
  <defs
     id="defs1547">
    <clipPath
       clipPathUnits="userSpaceOnUse"
       id="clipPath812">
      <path
         d="M 0,1500 H 1500 V 0 H 0 Z"
         id="path810" />
    </clipPath>
  </defs>
  <g
     inkscape:label="Layer 1"
     inkscape:groupmode="layer"
     id="layer1"
     transform="translate(172.0928,12.002171)">
    <g
       id="g818"
       transform="matrix(0.03906608,0,0,-0.03906608,-169.1666,-10.772956)"
       style="fill:#ffffff">
      <path
         d="m 0,0 c -17.338,5.886 -23.068,12.455 -25.747,29.123 -0.41,2.551 -3.779,3.204 -5.172,1.028 C -42.293,12.38 -51.321,5.746 -72.835,-0.353 c -2.657,-0.753 -2.795,-4.503 -0.18,-5.391 17.338,-5.886 23.068,-12.455 25.746,-29.123 0.411,-2.552 3.779,-3.205 5.173,-1.028 11.374,17.771 20.402,24.404 41.916,30.503 C 2.478,-4.638 2.615,-0.888 0,0"
         style="fill:#ffffff;fill-opacity:1;fill-rule:nonzero;stroke:none"
         id="path820" />
    </g>
  </g>
</svg>
